<svg xmlns="http://www.w3.org/2000/svg" xmlns:xlink="http://www.w3.org/1999/xlink" width="1584" zoomAndPan="magnify" viewBox="0 0 1188 296.999993" height="396" preserveAspectRatio="xMidYMid meet" version="1.0"><defs><g/><clipPath id="2ec13a19a1"><path d="M 61.28125 3 L 307 3 L 307 262 L 61.28125 262 Z M 61.28125 3 " clip-rule="nonzero"/></clipPath><clipPath id="87bea2de2a"><path d="M 170 189 L 281 189 L 281 293.988281 L 170 293.988281 Z M 170 189 " clip-rule="nonzero"/></clipPath></defs><g clip-path="url(#2ec13a19a1)"><path fill="#058789" d="M 263.019531 186.496094 C 275.890625 186.496094 286.363281 196.96875 286.363281 209.839844 C 286.363281 222.710938 275.890625 233.1875 263.019531 233.1875 C 250.144531 233.1875 239.671875 222.710938 239.671875 209.839844 C 239.671875 196.96875 250.144531 186.496094 263.019531 186.496094 Z M 203.390625 8.324219 C 192.871094 12.988281 185.5625 20.773438 182.257812 30.832031 C 178.5 42.269531 179.660156 54.957031 185.523438 66.5625 C 188.464844 72.386719 192.214844 77.738281 196.117188 83.167969 C 199.929688 88.457031 204.019531 93.863281 208.273438 99.234375 C 208.429688 99.433594 208.617188 99.59375 208.824219 99.710938 C 219.667969 115.929688 225.398438 134.84375 225.398438 154.433594 C 225.398438 165.980469 223.421875 177.28125 219.515625 188.035156 L 214.390625 188.035156 L 214.390625 126.730469 L 169.570312 126.730469 L 169.570312 188.035156 L 105.042969 188.035156 L 105.042969 234.027344 L 169.570312 234.027344 L 169.570312 243.273438 C 156.191406 249.722656 141.816406 252.992188 126.832031 252.992188 C 103.542969 252.992188 80.941406 244.71875 63.195312 229.695312 L 61.363281 231.519531 C 62.257812 232.585938 63.210938 233.664062 64.191406 234.726562 L 64.265625 234.800781 C 82.976562 252.007812 107.289062 261.484375 132.722656 261.484375 C 146.109375 261.484375 159.109375 258.910156 171.363281 253.839844 C 185.046875 248.175781 197.570312 239.371094 207.578125 228.367188 C 217.636719 217.308594 225.234375 203.941406 229.542969 189.707031 C 232.421875 180.226562 233.886719 170.339844 233.886719 160.316406 C 233.886719 135.957031 225.097656 112.425781 209.152344 94.054688 C 204.988281 88.722656 201.058594 83.441406 197.464844 78.359375 C 193.273438 72.425781 189.976562 67.328125 187.546875 61.746094 C 182.085938 49.199219 182.902344 34.402344 189.632812 24.054688 C 194.511719 16.554688 203.988281 10.832031 214.992188 8.742188 C 225.066406 6.828125 237.015625 7.726562 247.789062 11.199219 C 272.054688 19.03125 285.738281 43.871094 291.730469 57.984375 C 300.847656 79.441406 304.332031 104.183594 301.804688 129.535156 C 300.140625 146.261719 294.574219 169.519531 277.613281 185.832031 C 273.355469 183.234375 268.359375 181.738281 263.019531 181.738281 C 247.523438 181.738281 234.914062 194.34375 234.914062 209.839844 C 234.914062 225.335938 247.523438 237.945312 263.019531 237.945312 C 278.515625 237.945312 291.121094 225.335938 291.121094 209.839844 C 291.121094 201.105469 287.113281 193.285156 280.839844 188.128906 C 282.539062 186.464844 284.136719 184.757812 285.578125 183.03125 C 298.183594 167.96875 305.351562 146.382812 306.308594 120.613281 C 307.328125 93.097656 301.757812 67.226562 290.195312 45.808594 C 284.195312 34.691406 276.921875 25.488281 268.574219 18.453125 C 259.839844 11.09375 249.253906 6.503906 237.097656 4.816406 C 224.066406 3 212.726562 4.183594 203.390625 8.324219 " fill-opacity="1" fill-rule="nonzero"/></g><g clip-path="url(#87bea2de2a)"><path fill="#05696b" d="M 263.019531 191.9375 C 253.128906 191.9375 245.117188 199.953125 245.117188 209.839844 C 245.117188 219.726562 253.128906 227.742188 263.019531 227.742188 C 272.90625 227.742188 280.917969 219.726562 280.917969 209.839844 C 280.917969 199.953125 272.90625 191.9375 263.019531 191.9375 Z M 239.246094 189.335938 L 235.777344 189.335938 C 231.890625 205.734375 223.957031 220.570312 213.089844 232.726562 L 241.527344 232.726562 C 235.429688 227 231.621094 218.863281 231.621094 209.839844 C 231.621094 202.003906 234.488281 194.835938 239.246094 189.335938 Z M 170.867188 294.03125 L 170.867188 260.746094 C 187.285156 255.144531 201.777344 245.390625 213.089844 232.730469 L 213.089844 294.03125 L 170.867188 294.03125 " fill-opacity="1" fill-rule="nonzero"/></g><g fill="#05696b" fill-opacity="1"><g transform="translate(424.258375, 185.071633)"><g><path d="M 70.890625 0 L 70.796875 -41.359375 L 50.515625 -7.28125 L 43.328125 -7.28125 L 23.140625 -40.46875 L 23.140625 0 L 8.171875 0 L 8.171875 -68.921875 L 21.375 -68.921875 L 47.171875 -26.09375 L 72.578125 -68.921875 L 85.671875 -68.921875 L 85.859375 0 Z M 70.890625 0 "/></g></g></g><g fill="#05696b" fill-opacity="1"><g transform="translate(518.28859, 185.071633)"><g><path d="M 61.546875 -12.796875 L 61.546875 0 L 8.171875 0 L 8.171875 -68.921875 L 60.265625 -68.921875 L 60.265625 -56.125 L 24.03125 -56.125 L 24.03125 -41.15625 L 56.03125 -41.15625 L 56.03125 -28.75 L 24.03125 -28.75 L 24.03125 -12.796875 Z M 61.546875 -12.796875 "/></g></g></g><g fill="#05696b" fill-opacity="1"><g transform="translate(584.355909, 185.071633)"><g><path d="M 8.171875 -68.921875 L 39.484375 -68.921875 C 46.972656 -68.921875 53.585938 -67.492188 59.328125 -64.640625 C 65.066406 -61.785156 69.53125 -57.765625 72.71875 -52.578125 C 75.90625 -47.390625 77.5 -41.351562 77.5 -34.46875 C 77.5 -27.570312 75.90625 -21.53125 72.71875 -16.34375 C 69.53125 -11.15625 65.066406 -7.132812 59.328125 -4.28125 C 53.585938 -1.425781 46.972656 0 39.484375 0 L 8.171875 0 Z M 38.703125 -13.09375 C 45.585938 -13.09375 51.082031 -15.015625 55.1875 -18.859375 C 59.289062 -22.703125 61.34375 -27.90625 61.34375 -34.46875 C 61.34375 -41.03125 59.289062 -46.226562 55.1875 -50.0625 C 51.082031 -53.90625 45.585938 -55.828125 38.703125 -55.828125 L 24.125 -55.828125 L 24.125 -13.09375 Z M 38.703125 -13.09375 "/></g></g></g><g fill="#05696b" fill-opacity="1"><g transform="translate(665.684658, 185.071633)"><g><path d="M 30.828125 1.1875 C 25.367188 1.1875 20.097656 0.445312 15.015625 -1.03125 C 9.929688 -2.507812 5.84375 -4.429688 2.75 -6.796875 L 8.171875 -18.8125 C 11.128906 -16.644531 14.640625 -14.90625 18.703125 -13.59375 C 22.773438 -12.28125 26.847656 -11.625 30.921875 -11.625 C 35.453125 -11.625 38.800781 -12.296875 40.96875 -13.640625 C 43.132812 -14.984375 44.21875 -16.769531 44.21875 -19 C 44.21875 -20.644531 43.578125 -22.007812 42.296875 -23.09375 C 41.015625 -24.175781 39.367188 -25.046875 37.359375 -25.703125 C 35.359375 -26.359375 32.65625 -27.078125 29.25 -27.859375 C 24 -29.109375 19.695312 -30.359375 16.34375 -31.609375 C 13 -32.859375 10.128906 -34.859375 7.734375 -37.609375 C 5.335938 -40.367188 4.140625 -44.046875 4.140625 -48.640625 C 4.140625 -52.648438 5.222656 -56.28125 7.390625 -59.53125 C 9.554688 -62.78125 12.820312 -65.351562 17.1875 -67.25 C 21.550781 -69.15625 26.882812 -70.109375 33.1875 -70.109375 C 37.582031 -70.109375 41.878906 -69.582031 46.078125 -68.53125 C 50.285156 -67.476562 53.960938 -65.96875 57.109375 -64 L 52.1875 -51.890625 C 45.820312 -55.503906 39.453125 -57.3125 33.078125 -57.3125 C 28.617188 -57.3125 25.320312 -56.585938 23.1875 -55.140625 C 21.050781 -53.691406 19.984375 -51.789062 19.984375 -49.4375 C 19.984375 -47.070312 21.210938 -45.3125 23.671875 -44.15625 C 26.140625 -43.007812 29.898438 -41.878906 34.953125 -40.765625 C 40.203125 -39.515625 44.5 -38.265625 47.84375 -37.015625 C 51.195312 -35.773438 54.070312 -33.804688 56.46875 -31.109375 C 58.863281 -28.421875 60.0625 -24.78125 60.0625 -20.1875 C 60.0625 -16.25 58.960938 -12.65625 56.765625 -9.40625 C 54.566406 -6.15625 51.269531 -3.578125 46.875 -1.671875 C 42.476562 0.234375 37.128906 1.1875 30.828125 1.1875 Z M 30.828125 1.1875 "/></g></g></g><g fill="#05696b" fill-opacity="1"><g transform="translate(728.502749, 185.071633)"><g><path d="M 61.546875 -12.796875 L 61.546875 0 L 8.171875 0 L 8.171875 -68.921875 L 60.265625 -68.921875 L 60.265625 -56.125 L 24.03125 -56.125 L 24.03125 -41.15625 L 56.03125 -41.15625 L 56.03125 -28.75 L 24.03125 -28.75 L 24.03125 -12.796875 Z M 61.546875 -12.796875 "/></g></g></g><g fill="#05696b" fill-opacity="1"><g transform="translate(794.570067, 185.071633)"><g><path d="M 61.546875 -12.796875 L 61.546875 0 L 8.171875 0 L 8.171875 -68.921875 L 60.265625 -68.921875 L 60.265625 -56.125 L 24.03125 -56.125 L 24.03125 -41.15625 L 56.03125 -41.15625 L 56.03125 -28.75 L 24.03125 -28.75 L 24.03125 -12.796875 Z M 61.546875 -12.796875 "/></g></g></g><g fill="#05696b" fill-opacity="1"><g transform="translate(860.637385, 185.071633)"><g><path d="M 33.28125 -27.078125 L 24.03125 -17.421875 L 24.03125 0 L 8.171875 0 L 8.171875 -68.921875 L 24.03125 -68.921875 L 24.03125 -36.734375 L 54.546875 -68.921875 L 72.28125 -68.921875 L 43.71875 -38.203125 L 73.953125 0 L 55.34375 0 Z M 33.28125 -27.078125 "/></g></g></g><g fill="#05696b" fill-opacity="1"><g transform="translate(356.617626, 271.877041)"><g><path d="M 3.390625 -28.640625 L 16.40625 -28.640625 C 19.519531 -28.640625 22.269531 -28.046875 24.65625 -26.859375 C 27.039062 -25.671875 28.894531 -24 30.21875 -21.84375 C 31.539062 -19.695312 32.203125 -17.191406 32.203125 -14.328125 C 32.203125 -11.460938 31.539062 -8.953125 30.21875 -6.796875 C 28.894531 -4.640625 27.039062 -2.96875 24.65625 -1.78125 C 22.269531 -0.59375 19.519531 0 16.40625 0 L 3.390625 0 Z M 16.078125 -5.4375 C 18.941406 -5.4375 21.226562 -6.234375 22.9375 -7.828125 C 24.644531 -9.429688 25.5 -11.597656 25.5 -14.328125 C 25.5 -17.054688 24.644531 -19.21875 22.9375 -20.8125 C 21.226562 -22.40625 18.941406 -23.203125 16.078125 -23.203125 L 10.03125 -23.203125 L 10.03125 -5.4375 Z M 16.078125 -5.4375 "/></g></g></g><g fill="#05696b" fill-opacity="1"><g transform="translate(406.745421, 271.877041)"><g><path d="M 2.953125 -22.015625 L 9.328125 -22.015625 L 9.328125 0 L 2.953125 0 Z M 6.140625 -25.078125 C 4.972656 -25.078125 4.019531 -25.414062 3.28125 -26.09375 C 2.539062 -26.78125 2.171875 -27.628906 2.171875 -28.640625 C 2.171875 -29.648438 2.539062 -30.492188 3.28125 -31.171875 C 4.019531 -31.859375 4.972656 -32.203125 6.140625 -32.203125 C 7.316406 -32.203125 8.269531 -31.875 9 -31.21875 C 9.738281 -30.5625 10.109375 -29.742188 10.109375 -28.765625 C 10.109375 -27.703125 9.738281 -26.820312 9 -26.125 C 8.269531 -25.425781 7.316406 -25.078125 6.140625 -25.078125 Z M 6.140625 -25.078125 "/></g></g></g><g fill="#05696b" fill-opacity="1"><g transform="translate(435.393115, 271.877041)"><g><path d="M 9.046875 -19.109375 C 9.804688 -20.171875 10.832031 -20.972656 12.125 -21.515625 C 13.425781 -22.066406 14.921875 -22.34375 16.609375 -22.34375 L 16.609375 -16.453125 C 15.898438 -16.503906 15.425781 -16.53125 15.1875 -16.53125 C 13.351562 -16.53125 11.914062 -16.019531 10.875 -15 C 9.84375 -13.976562 9.328125 -12.441406 9.328125 -10.390625 L 9.328125 0 L 2.953125 0 L 2.953125 -22.015625 L 9.046875 -22.015625 Z M 9.046875 -19.109375 "/></g></g></g><g fill="#05696b" fill-opacity="1"><g transform="translate(469.359676, 271.877041)"><g><path d="M 24.515625 -10.921875 C 24.515625 -10.835938 24.472656 -10.265625 24.390625 -9.203125 L 7.734375 -9.203125 C 8.035156 -7.835938 8.742188 -6.757812 9.859375 -5.96875 C 10.984375 -5.175781 12.375 -4.78125 14.03125 -4.78125 C 15.175781 -4.78125 16.191406 -4.953125 17.078125 -5.296875 C 17.972656 -5.640625 18.800781 -6.179688 19.5625 -6.921875 L 22.953125 -3.234375 C 20.878906 -0.859375 17.851562 0.328125 13.875 0.328125 C 11.394531 0.328125 9.195312 -0.15625 7.28125 -1.125 C 5.375 -2.09375 3.898438 -3.4375 2.859375 -5.15625 C 1.828125 -6.875 1.3125 -8.828125 1.3125 -11.015625 C 1.3125 -13.160156 1.820312 -15.097656 2.84375 -16.828125 C 3.863281 -18.566406 5.265625 -19.921875 7.046875 -20.890625 C 8.835938 -21.859375 10.835938 -22.34375 13.046875 -22.34375 C 15.203125 -22.34375 17.15625 -21.878906 18.90625 -20.953125 C 20.65625 -20.023438 22.023438 -18.691406 23.015625 -16.953125 C 24.015625 -15.222656 24.515625 -13.210938 24.515625 -10.921875 Z M 13.09375 -17.515625 C 11.644531 -17.515625 10.429688 -17.101562 9.453125 -16.28125 C 8.472656 -15.46875 7.875 -14.351562 7.65625 -12.9375 L 18.5 -12.9375 C 18.28125 -14.320312 17.675781 -15.429688 16.6875 -16.265625 C 15.707031 -17.097656 14.507812 -17.515625 13.09375 -17.515625 Z M 13.09375 -17.515625 "/></g></g></g><g fill="#05696b" fill-opacity="1"><g transform="translate(511.509152, 271.877041)"><g><path d="M 13.59375 0.328125 C 11.238281 0.328125 9.125 -0.15625 7.25 -1.125 C 5.382812 -2.09375 3.925781 -3.4375 2.875 -5.15625 C 1.832031 -6.875 1.3125 -8.828125 1.3125 -11.015625 C 1.3125 -13.191406 1.832031 -15.140625 2.875 -16.859375 C 3.925781 -18.578125 5.382812 -19.921875 7.25 -20.890625 C 9.125 -21.859375 11.238281 -22.34375 13.59375 -22.34375 C 15.90625 -22.34375 17.925781 -21.859375 19.65625 -20.890625 C 21.394531 -19.921875 22.660156 -18.535156 23.453125 -16.734375 L 18.5 -14.078125 C 17.351562 -16.097656 15.703125 -17.109375 13.546875 -17.109375 C 11.878906 -17.109375 10.5 -16.5625 9.40625 -15.46875 C 8.320312 -14.375 7.78125 -12.890625 7.78125 -11.015625 C 7.78125 -9.128906 8.320312 -7.640625 9.40625 -6.546875 C 10.5 -5.453125 11.878906 -4.90625 13.546875 -4.90625 C 15.722656 -4.90625 17.375 -5.914062 18.5 -7.9375 L 23.453125 -5.234375 C 22.660156 -3.492188 21.394531 -2.128906 19.65625 -1.140625 C 17.925781 -0.160156 15.90625 0.328125 13.59375 0.328125 Z M 13.59375 0.328125 "/></g></g></g><g fill="#05696b" fill-opacity="1"><g transform="translate(552.022027, 271.877041)"><g><path d="M 17.140625 -1.0625 C 16.515625 -0.601562 15.742188 -0.253906 14.828125 -0.015625 C 13.921875 0.210938 12.960938 0.328125 11.953125 0.328125 C 9.328125 0.328125 7.296875 -0.335938 5.859375 -1.671875 C 4.429688 -3.015625 3.71875 -4.984375 3.71875 -7.578125 L 3.71875 -16.609375 L 0.328125 -16.609375 L 0.328125 -21.53125 L 3.71875 -21.53125 L 3.71875 -26.890625 L 10.109375 -26.890625 L 10.109375 -21.53125 L 15.59375 -21.53125 L 15.59375 -16.609375 L 10.109375 -16.609375 L 10.109375 -7.65625 C 10.109375 -6.726562 10.347656 -6.007812 10.828125 -5.5 C 11.304688 -5 11.976562 -4.75 12.84375 -4.75 C 13.851562 -4.75 14.710938 -5.019531 15.421875 -5.5625 Z M 17.140625 -1.0625 "/></g></g></g><g fill="#05696b" fill-opacity="1"><g transform="translate(586.152226, 271.877041)"><g><path d="M 13.421875 0.328125 C 11.097656 0.328125 9.015625 -0.15625 7.171875 -1.125 C 5.335938 -2.09375 3.898438 -3.4375 2.859375 -5.15625 C 1.828125 -6.875 1.3125 -8.828125 1.3125 -11.015625 C 1.3125 -13.191406 1.828125 -15.140625 2.859375 -16.859375 C 3.898438 -18.578125 5.335938 -19.921875 7.171875 -20.890625 C 9.015625 -21.859375 11.097656 -22.34375 13.421875 -22.34375 C 15.742188 -22.34375 17.816406 -21.859375 19.640625 -20.890625 C 21.472656 -19.921875 22.90625 -18.578125 23.9375 -16.859375 C 24.976562 -15.140625 25.5 -13.191406 25.5 -11.015625 C 25.5 -8.828125 24.976562 -6.875 23.9375 -5.15625 C 22.90625 -3.4375 21.472656 -2.09375 19.640625 -1.125 C 17.816406 -0.15625 15.742188 0.328125 13.421875 0.328125 Z M 13.421875 -4.90625 C 15.054688 -4.90625 16.398438 -5.457031 17.453125 -6.5625 C 18.503906 -7.664062 19.03125 -9.148438 19.03125 -11.015625 C 19.03125 -12.867188 18.503906 -14.347656 17.453125 -15.453125 C 16.398438 -16.554688 15.054688 -17.109375 13.421875 -17.109375 C 11.785156 -17.109375 10.4375 -16.554688 9.375 -15.453125 C 8.3125 -14.347656 7.78125 -12.867188 7.78125 -11.015625 C 7.78125 -9.148438 8.3125 -7.664062 9.375 -6.5625 C 10.4375 -5.457031 11.785156 -4.90625 13.421875 -4.90625 Z M 13.421875 -4.90625 "/></g></g></g><g fill="#05696b" fill-opacity="1"><g transform="translate(629.28363, 271.877041)"><g><path d="M 9.046875 -19.109375 C 9.804688 -20.171875 10.832031 -20.972656 12.125 -21.515625 C 13.425781 -22.066406 14.921875 -22.34375 16.609375 -22.34375 L 16.609375 -16.453125 C 15.898438 -16.503906 15.425781 -16.53125 15.1875 -16.53125 C 13.351562 -16.53125 11.914062 -16.019531 10.875 -15 C 9.84375 -13.976562 9.328125 -12.441406 9.328125 -10.390625 L 9.328125 0 L 2.953125 0 L 2.953125 -22.015625 L 9.046875 -22.015625 Z M 9.046875 -19.109375 "/></g></g></g><g fill="#05696b" fill-opacity="1"><g transform="translate(663.250181, 271.877041)"><g><path d="M 2.953125 -22.015625 L 9.328125 -22.015625 L 9.328125 0 L 2.953125 0 Z M 6.140625 -25.078125 C 4.972656 -25.078125 4.019531 -25.414062 3.28125 -26.09375 C 2.539062 -26.78125 2.171875 -27.628906 2.171875 -28.640625 C 2.171875 -29.648438 2.539062 -30.492188 3.28125 -31.171875 C 4.019531 -31.859375 4.972656 -32.203125 6.140625 -32.203125 C 7.316406 -32.203125 8.269531 -31.875 9 -31.21875 C 9.738281 -30.5625 10.109375 -29.742188 10.109375 -28.765625 C 10.109375 -27.703125 9.738281 -26.820312 9 -26.125 C 8.269531 -25.425781 7.316406 -25.078125 6.140625 -25.078125 Z M 6.140625 -25.078125 "/></g></g></g><g fill="#05696b" fill-opacity="1"><g transform="translate(691.897869, 271.877041)"><g><path d="M 13.421875 0.328125 C 11.097656 0.328125 9.015625 -0.15625 7.171875 -1.125 C 5.335938 -2.09375 3.898438 -3.4375 2.859375 -5.15625 C 1.828125 -6.875 1.3125 -8.828125 1.3125 -11.015625 C 1.3125 -13.191406 1.828125 -15.140625 2.859375 -16.859375 C 3.898438 -18.578125 5.335938 -19.921875 7.171875 -20.890625 C 9.015625 -21.859375 11.097656 -22.34375 13.421875 -22.34375 C 15.742188 -22.34375 17.816406 -21.859375 19.640625 -20.890625 C 21.472656 -19.921875 22.90625 -18.578125 23.9375 -16.859375 C 24.976562 -15.140625 25.5 -13.191406 25.5 -11.015625 C 25.5 -8.828125 24.976562 -6.875 23.9375 -5.15625 C 22.90625 -3.4375 21.472656 -2.09375 19.640625 -1.125 C 17.816406 -0.15625 15.742188 0.328125 13.421875 0.328125 Z M 13.421875 -4.90625 C 15.054688 -4.90625 16.398438 -5.457031 17.453125 -6.5625 C 18.503906 -7.664062 19.03125 -9.148438 19.03125 -11.015625 C 19.03125 -12.867188 18.503906 -14.347656 17.453125 -15.453125 C 16.398438 -16.554688 15.054688 -17.109375 13.421875 -17.109375 C 11.785156 -17.109375 10.4375 -16.554688 9.375 -15.453125 C 8.3125 -14.347656 7.78125 -12.867188 7.78125 -11.015625 C 7.78125 -9.148438 8.3125 -7.664062 9.375 -6.5625 C 10.4375 -5.457031 11.785156 -4.90625 13.421875 -4.90625 Z M 13.421875 -4.90625 "/></g></g></g><g fill="#05696b" fill-opacity="1"><g transform="translate(735.029294, 271.877041)"><g/></g></g><g fill="#05696b" fill-opacity="1"><g transform="translate(762.940525, 271.877041)"><g><path d="M 29.46875 0 L 29.421875 -17.1875 L 21 -3.03125 L 18 -3.03125 L 9.609375 -16.8125 L 9.609375 0 L 3.390625 0 L 3.390625 -28.640625 L 8.875 -28.640625 L 19.609375 -10.84375 L 30.15625 -28.640625 L 35.609375 -28.640625 L 35.6875 0 Z M 29.46875 0 "/></g></g></g><g fill="#05696b" fill-opacity="1"><g transform="translate(818.346316, 271.877041)"><g><path d="M 24.515625 -10.921875 C 24.515625 -10.835938 24.472656 -10.265625 24.390625 -9.203125 L 7.734375 -9.203125 C 8.035156 -7.835938 8.742188 -6.757812 9.859375 -5.96875 C 10.984375 -5.175781 12.375 -4.78125 14.03125 -4.78125 C 15.175781 -4.78125 16.191406 -4.953125 17.078125 -5.296875 C 17.972656 -5.640625 18.800781 -6.179688 19.5625 -6.921875 L 22.953125 -3.234375 C 20.878906 -0.859375 17.851562 0.328125 13.875 0.328125 C 11.394531 0.328125 9.195312 -0.15625 7.28125 -1.125 C 5.375 -2.09375 3.898438 -3.4375 2.859375 -5.15625 C 1.828125 -6.875 1.3125 -8.828125 1.3125 -11.015625 C 1.3125 -13.160156 1.820312 -15.097656 2.84375 -16.828125 C 3.863281 -18.566406 5.265625 -19.921875 7.046875 -20.890625 C 8.835938 -21.859375 10.835938 -22.34375 13.046875 -22.34375 C 15.203125 -22.34375 17.15625 -21.878906 18.90625 -20.953125 C 20.65625 -20.023438 22.023438 -18.691406 23.015625 -16.953125 C 24.015625 -15.222656 24.515625 -13.210938 24.515625 -10.921875 Z M 13.09375 -17.515625 C 11.644531 -17.515625 10.429688 -17.101562 9.453125 -16.28125 C 8.472656 -15.46875 7.875 -14.351562 7.65625 -12.9375 L 18.5 -12.9375 C 18.28125 -14.320312 17.675781 -15.429688 16.6875 -16.265625 C 15.707031 -17.097656 14.507812 -17.515625 13.09375 -17.515625 Z M 13.09375 -17.515625 "/></g></g></g><g fill="#05696b" fill-opacity="1"><g transform="translate(860.495812, 271.877041)"><g><path d="M 25.375 -30.359375 L 25.375 0 L 19.28125 0 L 19.28125 -2.53125 C 17.695312 -0.625 15.40625 0.328125 12.40625 0.328125 C 10.332031 0.328125 8.453125 -0.132812 6.765625 -1.0625 C 5.085938 -1.988281 3.769531 -3.3125 2.8125 -5.03125 C 1.863281 -6.75 1.390625 -8.742188 1.390625 -11.015625 C 1.390625 -13.273438 1.863281 -15.265625 2.8125 -16.984375 C 3.769531 -18.703125 5.085938 -20.023438 6.765625 -20.953125 C 8.453125 -21.878906 10.332031 -22.34375 12.40625 -22.34375 C 15.207031 -22.34375 17.398438 -21.457031 18.984375 -19.6875 L 18.984375 -30.359375 Z M 13.5 -4.90625 C 15.113281 -4.90625 16.453125 -5.457031 17.515625 -6.5625 C 18.578125 -7.664062 19.109375 -9.148438 19.109375 -11.015625 C 19.109375 -12.867188 18.578125 -14.347656 17.515625 -15.453125 C 16.453125 -16.554688 15.113281 -17.109375 13.5 -17.109375 C 11.863281 -17.109375 10.515625 -16.554688 9.453125 -15.453125 C 8.390625 -14.347656 7.859375 -12.867188 7.859375 -11.015625 C 7.859375 -9.148438 8.390625 -7.664062 9.453125 -6.5625 C 10.515625 -5.457031 11.863281 -4.90625 13.5 -4.90625 Z M 13.5 -4.90625 "/></g></g></g><g fill="#05696b" fill-opacity="1"><g transform="translate(905.141072, 271.877041)"><g><path d="M 2.953125 -22.015625 L 9.328125 -22.015625 L 9.328125 0 L 2.953125 0 Z M 6.140625 -25.078125 C 4.972656 -25.078125 4.019531 -25.414062 3.28125 -26.09375 C 2.539062 -26.78125 2.171875 -27.628906 2.171875 -28.640625 C 2.171875 -29.648438 2.539062 -30.492188 3.28125 -31.171875 C 4.019531 -31.859375 4.972656 -32.203125 6.140625 -32.203125 C 7.316406 -32.203125 8.269531 -31.875 9 -31.21875 C 9.738281 -30.5625 10.109375 -29.742188 10.109375 -28.765625 C 10.109375 -27.703125 9.738281 -26.820312 9 -26.125 C 8.269531 -25.425781 7.316406 -25.078125 6.140625 -25.078125 Z M 6.140625 -25.078125 "/></g></g></g><g fill="#05696b" fill-opacity="1"><g transform="translate(933.788781, 271.877041)"><g><path d="M 13.59375 0.328125 C 11.238281 0.328125 9.125 -0.15625 7.25 -1.125 C 5.382812 -2.09375 3.925781 -3.4375 2.875 -5.15625 C 1.832031 -6.875 1.3125 -8.828125 1.3125 -11.015625 C 1.3125 -13.191406 1.832031 -15.140625 2.875 -16.859375 C 3.925781 -18.578125 5.382812 -19.921875 7.25 -20.890625 C 9.125 -21.859375 11.238281 -22.34375 13.59375 -22.34375 C 15.90625 -22.34375 17.925781 -21.859375 19.65625 -20.890625 C 21.394531 -19.921875 22.660156 -18.535156 23.453125 -16.734375 L 18.5 -14.078125 C 17.351562 -16.097656 15.703125 -17.109375 13.546875 -17.109375 C 11.878906 -17.109375 10.5 -16.5625 9.40625 -15.46875 C 8.320312 -14.375 7.78125 -12.890625 7.78125 -11.015625 C 7.78125 -9.128906 8.320312 -7.640625 9.40625 -6.546875 C 10.5 -5.453125 11.878906 -4.90625 13.546875 -4.90625 C 15.722656 -4.90625 17.375 -5.914062 18.5 -7.9375 L 23.453125 -5.234375 C 22.660156 -3.492188 21.394531 -2.128906 19.65625 -1.140625 C 17.925781 -0.160156 15.90625 0.328125 13.59375 0.328125 Z M 13.59375 0.328125 "/></g></g></g><g fill="#05696b" fill-opacity="1"><g transform="translate(974.301676, 271.877041)"><g><path d="M 13.421875 0.328125 C 11.097656 0.328125 9.015625 -0.15625 7.171875 -1.125 C 5.335938 -2.09375 3.898438 -3.4375 2.859375 -5.15625 C 1.828125 -6.875 1.3125 -8.828125 1.3125 -11.015625 C 1.3125 -13.191406 1.828125 -15.140625 2.859375 -16.859375 C 3.898438 -18.578125 5.335938 -19.921875 7.171875 -20.890625 C 9.015625 -21.859375 11.097656 -22.34375 13.421875 -22.34375 C 15.742188 -22.34375 17.816406 -21.859375 19.640625 -20.890625 C 21.472656 -19.921875 22.90625 -18.578125 23.9375 -16.859375 C 24.976562 -15.140625 25.5 -13.191406 25.5 -11.015625 C 25.5 -8.828125 24.976562 -6.875 23.9375 -5.15625 C 22.90625 -3.4375 21.472656 -2.09375 19.640625 -1.125 C 17.816406 -0.15625 15.742188 0.328125 13.421875 0.328125 Z M 13.421875 -4.90625 C 15.054688 -4.90625 16.398438 -5.457031 17.453125 -6.5625 C 18.503906 -7.664062 19.03125 -9.148438 19.03125 -11.015625 C 19.03125 -12.867188 18.503906 -14.347656 17.453125 -15.453125 C 16.398438 -16.554688 15.054688 -17.109375 13.421875 -17.109375 C 11.785156 -17.109375 10.4375 -16.554688 9.375 -15.453125 C 8.3125 -14.347656 7.78125 -12.867188 7.78125 -11.015625 C 7.78125 -9.148438 8.3125 -7.664062 9.375 -6.5625 C 10.4375 -5.457031 11.785156 -4.90625 13.421875 -4.90625 Z M 13.421875 -4.90625 "/></g></g></g><path stroke-linecap="butt" transform="matrix(0.749998, -0.00167616, 0.00167616, 0.749998, 324.197249, 207.251384)" fill="none" stroke-linejoin="miter" d="M -0.000721667 1.498157 L 903.491197 1.501726 " stroke="#058789" stroke-width="3" stroke-opacity="1" stroke-miterlimit="4"/></svg>